# xmcd
#
# Track frame offsets: 
#        150
#        11510
#        24117
#        36716
#        50219
#        64177
#        76041
#        86778
#        96548
#        111503
#        122878
#        131244
#        144821
#        154892
#
# Disc length: 2227 seconds
#
# Revision: 1
# Processed by: cddbd v1.5.2PL0 Copyright (c) Steve Scherf et al.
# Submitted via: ExactAudioCopy v0.99pb5
#
DISCID=c608b10e
DTITLE=Willie Nelson - Artist Touch
DYEAR=2008
DGENRE=Country
TTITLE0=Touch Me
TTITLE1=Any Old Arms Won't Do
TTITLE2=She's Not For You
TTITLE3=The Last Letter
TTITLE4=Will You Remember Mine
TTITLE5=Happiness Lives Next Door
TTITLE6=I Feel Sorry For Him
TTITLE7=Let's Pretend
TTITLE8=And So Will You My Love
TTITLE9=Suffering In Silence
TTITLE10=Slow Down Old World
TTITLE11=A Moment Isn't Very Long
TTITLE12=Pride Wins Again
TTITLE13=Shelter Of Your Arms
EXTD=Willie Nelson's Wanted (Dutch edition)
EXTT0=
EXTT1=
EXTT2=
EXTT3=
EXTT4=
EXTT5=
EXTT6=
EXTT7=
EXTT8=
EXTT9=
EXTT10=
EXTT11=
EXTT12=
EXTT13=
PLAYORDER=
